<?xml version="1.0" encoding="UTF-8" standalone="no"?>
<!DOCTYPE svg PUBLIC "-//W3C//DTD SVG 1.1//EN"
 "http://www.w3.org/Graphics/SVG/1.1/DTD/svg11.dtd">
<!-- Generated by graphviz version 2.36.0 (20140111.2315)
 -->
<!-- Title: %3 Pages: 1 -->
<svg width="1256pt" height="188pt"
 viewBox="0.00 0.00 1256.00 188.00" xmlns="http://www.w3.org/2000/svg" xmlns:xlink="http://www.w3.org/1999/xlink">
<g id="graph0" class="graph" transform="scale(1 1) rotate(0) translate(4 184)">
<title>%3</title>
<polygon fill="white" stroke="none" points="-4,4 -4,-184 1252,-184 1252,4 -4,4"/>
<!--  no &#160;home owner &#160;yes0 -->
<g id="node1" class="node"><title> no &#160;home owner &#160;yes0</title>
<ellipse fill="none" stroke="black" cx="92" cy="-162" rx="91.9385" ry="18"/>
<text text-anchor="middle" x="92" y="-158.3" font-family="Times,serif" font-size="14.00"> no &#160;home owner &#160;yes0</text>
</g>
<!-- give0 -->
<g id="node2" class="node"><title>give0</title>
<ellipse fill="none" stroke="black" cx="70" cy="-18" rx="30.3206" ry="18"/>
<text text-anchor="middle" x="70" y="-14.3" font-family="Times,serif" font-size="14.00">give0</text>
</g>
<!--  no &#160;home owner &#160;yes0&#45;&#45;give0 -->
<g id="edge4" class="edge"><title> no &#160;home owner &#160;yes0&#45;&#45;give0</title>
<path fill="none" stroke="green" d="M78.8544,-143.908C72.0775,-134.006 64.5129,-120.964 61,-108 54.3792,-83.5669 59.8383,-54.1663 64.6784,-36.0294"/>
</g>
<!--  single &#160;marital status &#160;married0 -->
<g id="node4" class="node"><title> single &#160;marital status &#160;married0</title>
<ellipse fill="none" stroke="black" cx="194" cy="-90" rx="124.209" ry="18"/>
<text text-anchor="middle" x="194" y="-86.3" font-family="Times,serif" font-size="14.00"> single &#160;marital status &#160;married0</text>
</g>
<!--  no &#160;home owner &#160;yes0&#45;&#45; single &#160;marital status &#160;married0 -->
<g id="edge3" class="edge"><title> no &#160;home owner &#160;yes0&#45;&#45; single &#160;marital status &#160;married0</title>
<path fill="none" stroke="red" d="M115.914,-144.588C132.048,-133.516 153.277,-118.947 169.527,-107.795"/>
</g>
<!-- dont give0 -->
<g id="node3" class="node"><title>dont give0</title>
<ellipse fill="none" stroke="black" cx="194" cy="-18" rx="48.1437" ry="18"/>
<text text-anchor="middle" x="194" y="-14.3" font-family="Times,serif" font-size="14.00">dont give0</text>
</g>
<!--  single &#160;marital status &#160;married0&#45;&#45;give0 -->
<g id="edge2" class="edge"><title> single &#160;marital status &#160;married0&#45;&#45;give0</title>
<path fill="none" stroke="green" d="M164.614,-72.411C142.126,-59.7161 111.635,-42.5037 91.4156,-31.0895"/>
</g>
<!--  single &#160;marital status &#160;married0&#45;&#45;dont give0 -->
<g id="edge1" class="edge"><title> single &#160;marital status &#160;married0&#45;&#45;dont give0</title>
<path fill="none" stroke="red" d="M194,-71.6966C194,-60.8463 194,-46.9167 194,-36.1043"/>
</g>
<!--  no &#160;home owner &#160;yes1 -->
<g id="node5" class="node"><title> no &#160;home owner &#160;yes1</title>
<ellipse fill="none" stroke="black" cx="391" cy="-162" rx="91.9385" ry="18"/>
<text text-anchor="middle" x="391" y="-158.3" font-family="Times,serif" font-size="14.00"> no &#160;home owner &#160;yes1</text>
</g>
<!-- give1 -->
<g id="node7" class="node"><title>give1</title>
<ellipse fill="none" stroke="black" cx="373" cy="-18" rx="30.3206" ry="18"/>
<text text-anchor="middle" x="373" y="-14.3" font-family="Times,serif" font-size="14.00">give1</text>
</g>
<!--  no &#160;home owner &#160;yes1&#45;&#45;give1 -->
<g id="edge8" class="edge"><title> no &#160;home owner &#160;yes1&#45;&#45;give1</title>
<path fill="none" stroke="green" d="M380.224,-144.084C374.466,-134.029 367.966,-120.779 365,-108 359.283,-83.3673 364.09,-54.0213 368.336,-35.9504"/>
</g>
<!--  single &#160;marital status &#160;married1 -->
<g id="node8" class="node"><title> single &#160;marital status &#160;married1</title>
<ellipse fill="none" stroke="black" cx="498" cy="-90" rx="124.209" ry="18"/>
<text text-anchor="middle" x="498" y="-86.3" font-family="Times,serif" font-size="14.00"> single &#160;marital status &#160;married1</text>
</g>
<!--  no &#160;home owner &#160;yes1&#45;&#45; single &#160;marital status &#160;married1 -->
<g id="edge7" class="edge"><title> no &#160;home owner &#160;yes1&#45;&#45; single &#160;marital status &#160;married1</title>
<path fill="none" stroke="red" d="M416.087,-144.588C433.012,-133.516 455.281,-118.947 472.327,-107.795"/>
</g>
<!-- dont give1 -->
<g id="node6" class="node"><title>dont give1</title>
<ellipse fill="none" stroke="black" cx="498" cy="-18" rx="48.1437" ry="18"/>
<text text-anchor="middle" x="498" y="-14.3" font-family="Times,serif" font-size="14.00">dont give1</text>
</g>
<!--  single &#160;marital status &#160;married1&#45;&#45;dont give1 -->
<g id="edge6" class="edge"><title> single &#160;marital status &#160;married1&#45;&#45;dont give1</title>
<path fill="none" stroke="green" d="M498,-71.6966C498,-60.8463 498,-46.9167 498,-36.1043"/>
</g>
<!--  single &#160;marital status &#160;married1&#45;&#45;give1 -->
<g id="edge5" class="edge"><title> single &#160;marital status &#160;married1&#45;&#45;give1</title>
<path fill="none" stroke="red" d="M468.377,-72.411C445.563,-59.6352 414.579,-42.2842 394.2,-30.8721"/>
</g>
<!--  single &#160;marital status &#160;married2 -->
<g id="node9" class="node"><title> single &#160;marital status &#160;married2</title>
<ellipse fill="none" stroke="black" cx="719" cy="-162" rx="124.209" ry="18"/>
<text text-anchor="middle" x="719" y="-158.3" font-family="Times,serif" font-size="14.00"> single &#160;marital status &#160;married2</text>
</g>
<!-- give2 -->
<g id="node10" class="node"><title>give2</title>
<ellipse fill="none" stroke="black" cx="671" cy="-90" rx="30.3206" ry="18"/>
<text text-anchor="middle" x="671" y="-86.3" font-family="Times,serif" font-size="14.00">give2</text>
</g>
<!--  single &#160;marital status &#160;married2&#45;&#45;give2 -->
<g id="edge10" class="edge"><title> single &#160;marital status &#160;married2&#45;&#45;give2</title>
<path fill="none" stroke="green" d="M707.381,-144.055C699.612,-132.726 689.46,-117.92 681.854,-106.829"/>
</g>
<!-- dont give2 -->
<g id="node11" class="node"><title>dont give2</title>
<ellipse fill="none" stroke="black" cx="768" cy="-90" rx="48.1437" ry="18"/>
<text text-anchor="middle" x="768" y="-86.3" font-family="Times,serif" font-size="14.00">dont give2</text>
</g>
<!--  single &#160;marital status &#160;married2&#45;&#45;dont give2 -->
<g id="edge9" class="edge"><title> single &#160;marital status &#160;married2&#45;&#45;dont give2</title>
<path fill="none" stroke="red" d="M730.862,-144.055C738.566,-133.049 748.566,-118.764 756.248,-107.789"/>
</g>
<!--  no &#160;home owner &#160;yes3 -->
<g id="node12" class="node"><title> no &#160;home owner &#160;yes3</title>
<ellipse fill="none" stroke="black" cx="953" cy="-162" rx="91.9385" ry="18"/>
<text text-anchor="middle" x="953" y="-158.3" font-family="Times,serif" font-size="14.00"> no &#160;home owner &#160;yes3</text>
</g>
<!-- give3 -->
<g id="node13" class="node"><title>give3</title>
<ellipse fill="none" stroke="black" cx="909" cy="-90" rx="30.3206" ry="18"/>
<text text-anchor="middle" x="909" y="-86.3" font-family="Times,serif" font-size="14.00">give3</text>
</g>
<!--  no &#160;home owner &#160;yes3&#45;&#45;give3 -->
<g id="edge12" class="edge"><title> no &#160;home owner &#160;yes3&#45;&#45;give3</title>
<path fill="none" stroke="green" d="M942.349,-144.055C935.329,-132.887 926.187,-118.343 919.25,-107.307"/>
</g>
<!-- dont give3 -->
<g id="node14" class="node"><title>dont give3</title>
<ellipse fill="none" stroke="black" cx="1006" cy="-90" rx="48.1437" ry="18"/>
<text text-anchor="middle" x="1006" y="-86.3" font-family="Times,serif" font-size="14.00">dont give3</text>
</g>
<!--  no &#160;home owner &#160;yes3&#45;&#45;dont give3 -->
<g id="edge11" class="edge"><title> no &#160;home owner &#160;yes3&#45;&#45;dont give3</title>
<path fill="none" stroke="red" d="M965.83,-144.055C974.163,-133.049 984.979,-118.764 993.288,-107.789"/>
</g>
<!--  no &#160;home owner &#160;yes4 -->
<g id="node15" class="node"><title> no &#160;home owner &#160;yes4</title>
<ellipse fill="none" stroke="black" cx="1156" cy="-162" rx="91.9385" ry="18"/>
<text text-anchor="middle" x="1156" y="-158.3" font-family="Times,serif" font-size="14.00"> no &#160;home owner &#160;yes4</text>
</g>
</g>
</svg>
