<?xml version="1.0" encoding="UTF-8" standalone="no"?>
<!DOCTYPE svg PUBLIC "-//W3C//DTD SVG 1.1//EN"
 "http://www.w3.org/Graphics/SVG/1.1/DTD/svg11.dtd">
<!-- Generated by graphviz version 2.36.0 (20140111.2315)
 -->
<!-- Title: %3 Pages: 1 -->
<svg width="313pt" height="332pt"
 viewBox="0.00 0.00 313.00 332.00" xmlns="http://www.w3.org/2000/svg" xmlns:xlink="http://www.w3.org/1999/xlink">
<g id="graph0" class="graph" transform="scale(1 1) rotate(0) translate(4 328)">
<title>%3</title>
<polygon fill="white" stroke="none" points="-4,4 -4,-328 309,-328 309,4 -4,4"/>
<!--  no &#160;home owner &#160;yes -->
<g id="node1" class="node"><title> no &#160;home owner &#160;yes</title>
<ellipse fill="none" stroke="black" cx="87" cy="-306" rx="87.613" ry="18"/>
<text text-anchor="middle" x="87" y="-302.3" font-family="Times,serif" font-size="14.00"> no &#160;home owner &#160;yes</text>
</g>
<!-- give -->
<g id="node2" class="node"><title>give</title>
<ellipse fill="none" stroke="black" cx="96" cy="-18" rx="27" ry="18"/>
<text text-anchor="middle" x="96" y="-14.3" font-family="Times,serif" font-size="14.00">give</text>
</g>
<!--  no &#160;home owner &#160;yes&#45;&#45;give -->
<g id="edge8" class="edge"><title> no &#160;home owner &#160;yes&#45;&#45;give</title>
<path fill="none" stroke="green" d="M60.4354,-288.796C48.1136,-279.679 34.7292,-267.09 28,-252 8.4512,-208.161 16.1659,-190.518 28,-144 38.9025,-101.144 67.8042,-57.1059 84.204,-34.4916"/>
</g>
<!--  married &#160;marital status &#160;divorced -->
<g id="node6" class="node"><title> married &#160;marital status &#160;divorced</title>
<ellipse fill="none" stroke="black" cx="166" cy="-234" rx="129.008" ry="18"/>
<text text-anchor="middle" x="166" y="-230.3" font-family="Times,serif" font-size="14.00"> married &#160;marital status &#160;divorced</text>
</g>
<!--  no &#160;home owner &#160;yes&#45;&#45; married &#160;marital status &#160;divorced -->
<g id="edge7" class="edge"><title> no &#160;home owner &#160;yes&#45;&#45; married &#160;marital status &#160;divorced</title>
<path fill="none" stroke="red" d="M105.722,-288.411C118.133,-277.414 134.369,-263.027 146.864,-251.956"/>
</g>
<!-- dont give -->
<g id="node3" class="node"><title>dont give</title>
<ellipse fill="none" stroke="black" cx="260" cy="-18" rx="44.2946" ry="18"/>
<text text-anchor="middle" x="260" y="-14.3" font-family="Times,serif" font-size="14.00">dont give</text>
</g>
<!--  70 &#160;salary &#160;75 -->
<g id="node4" class="node"><title> 70 &#160;salary &#160;75</title>
<ellipse fill="none" stroke="black" cx="186" cy="-90" rx="61.6163" ry="18"/>
<text text-anchor="middle" x="186" y="-86.3" font-family="Times,serif" font-size="14.00"> 70 &#160;salary &#160;75</text>
</g>
<!--  70 &#160;salary &#160;75&#45;&#45;give -->
<g id="edge2" class="edge"><title> 70 &#160;salary &#160;75&#45;&#45;give</title>
<path fill="none" stroke="green" d="M165.126,-72.7646C149.236,-60.4059 127.648,-43.6154 112.849,-32.1049"/>
</g>
<!--  70 &#160;salary &#160;75&#45;&#45;dont give -->
<g id="edge1" class="edge"><title> 70 &#160;salary &#160;75&#45;&#45;dont give</title>
<path fill="none" stroke="red" d="M203.537,-72.411C215.59,-61.0098 231.494,-45.965 243.351,-34.7489"/>
</g>
<!--  single &#160;marital status &#160;married -->
<g id="node5" class="node"><title> single &#160;marital status &#160;married</title>
<ellipse fill="none" stroke="black" cx="157" cy="-162" rx="119.384" ry="18"/>
<text text-anchor="middle" x="157" y="-158.3" font-family="Times,serif" font-size="14.00"> single &#160;marital status &#160;married</text>
</g>
<!--  single &#160;marital status &#160;married&#45;&#45;give -->
<g id="edge4" class="edge"><title> single &#160;marital status &#160;married&#45;&#45;give</title>
<path fill="none" stroke="green" d="M139.964,-143.763C131.252,-134.016 121.204,-121.17 115,-108 103.958,-84.5592 99.266,-54.6263 97.3197,-36.1394"/>
</g>
<!--  single &#160;marital status &#160;married&#45;&#45; 70 &#160;salary &#160;75 -->
<g id="edge3" class="edge"><title> single &#160;marital status &#160;married&#45;&#45; 70 &#160;salary &#160;75</title>
<path fill="none" stroke="red" d="M164.169,-143.697C168.664,-132.846 174.435,-118.917 178.914,-108.104"/>
</g>
<!--  married &#160;marital status &#160;divorced&#45;&#45;dont give -->
<g id="edge6" class="edge"><title> married &#160;marital status &#160;divorced&#45;&#45;dont give</title>
<path fill="none" stroke="green" d="M232.554,-218.476C252.869,-210.589 272.991,-198.494 285,-180 314.576,-134.45 285.726,-66.6626 269.452,-35.6156"/>
</g>
<!--  married &#160;marital status &#160;divorced&#45;&#45; single &#160;marital status &#160;married -->
<g id="edge5" class="edge"><title> married &#160;marital status &#160;divorced&#45;&#45; single &#160;marital status &#160;married</title>
<path fill="none" stroke="red" d="M163.775,-215.697C162.38,-204.846 160.589,-190.917 159.199,-180.104"/>
</g>
</g>
</svg>
